<svg width="59" height="18" viewBox="0 0 59 18" fill="none" xmlns="http://www.w3.org/2000/svg">
<path d="M7.13253 17.359C7.09807 17.359 7.03777 17.3678 6.95163 17.3854C6.86549 17.4029 6.77934 17.4117 6.6932 17.4117C6.60706 17.4293 6.52953 17.438 6.46062 17.438C6.40894 17.4556 6.39171 17.4644 6.40894 17.4644H5.14265C4.867 17.4293 4.63442 17.4029 4.44491 17.3854C4.27262 17.3854 4.11757 17.3941 3.97974 17.4117C3.94529 17.4117 3.91083 17.3941 3.87637 17.359C3.84192 17.3415 3.81607 17.3239 3.79884 17.3063C3.78162 17.1483 3.773 16.9112 3.773 16.5951C3.79023 16.279 3.79884 16.0332 3.79884 15.8576V15.4888C3.8333 15.1902 3.84192 14.9268 3.82469 14.6985C3.80746 14.4527 3.79884 14.1805 3.79884 13.882V13.3024C3.88499 12.9161 3.90221 12.5122 3.85053 12.0907C3.81607 11.6693 3.79884 11.2829 3.79884 10.9317V4.21463C3.79884 4.03902 3.75577 3.95122 3.66963 3.95122C3.42844 3.93366 3.23892 3.92488 3.1011 3.92488C2.96327 3.92488 2.77376 3.93366 2.53256 3.95122C2.42919 3.95122 2.2483 3.92488 1.98987 3.8722C1.74867 3.81951 1.58501 3.80195 1.49886 3.81951C1.41272 3.85463 1.23182 3.85463 0.956172 3.81951C0.697747 3.78439 0.525464 3.76683 0.439322 3.76683C0.353181 3.76683 0.275653 3.76683 0.20674 3.76683C0.137827 3.74927 0.0689133 3.71415 0 3.66146V2.02829C0.0689133 1.99317 0.172283 1.97561 0.31011 1.97561C0.447936 1.97561 0.585763 1.97561 0.723589 1.97561C0.895873 1.97561 1.05093 1.97561 1.18875 1.97561C1.32658 1.97561 1.45579 1.96683 1.57639 1.94927C1.61085 1.94927 1.73145 1.95805 1.93819 1.97561C2.14493 1.99317 2.31721 2.01073 2.45504 2.02829C2.55841 1.99317 2.66178 1.97561 2.76515 1.97561C3.02357 1.95805 3.26477 1.95805 3.48873 1.97561C3.64379 1.99317 3.75577 1.99317 3.82469 1.97561C3.8936 1.95805 3.99697 1.94927 4.1348 1.94927H4.54828L5.24602 2.00195C5.41831 2.00195 5.59059 2.00195 5.76287 2.00195C5.93516 1.98439 6.10744 1.98439 6.27972 2.00195C6.67597 2.03707 7.055 2.05463 7.41679 2.05463C7.79581 2.03707 8.10592 2.01073 8.34712 1.97561C8.46772 1.97561 8.68307 1.99317 8.99318 2.02829C9.30329 2.06341 9.60479 2.08976 9.89767 2.10732C10.0872 2.12488 10.2422 2.12488 10.3628 2.10732C10.4834 2.08976 10.5868 2.08976 10.6729 2.10732V3.31902C10.6729 3.38927 10.6816 3.43317 10.6988 3.45073C10.716 3.46829 10.7074 3.54732 10.6729 3.6878C10.6557 3.75805 10.5868 3.80195 10.4662 3.81951C10.3456 3.81951 10.2509 3.81951 10.1819 3.81951C9.734 3.88976 9.32052 3.9161 8.9415 3.89854C8.5797 3.88098 8.22652 3.8722 7.88196 3.8722C7.74413 3.8722 7.63215 3.8722 7.54601 3.8722C7.47709 3.8722 7.39095 3.88098 7.28758 3.89854V4.50439C7.28758 4.64488 7.27897 4.85561 7.26174 5.13659C7.26174 5.41756 7.26174 5.63707 7.26174 5.79512C7.26174 5.86537 7.26174 5.91805 7.26174 5.95317C7.26174 5.98829 7.25312 6.04098 7.23589 6.11122C7.23589 6.1639 7.22728 6.25171 7.21005 6.37463C7.19282 6.48 7.15837 6.63805 7.10668 6.84878C7.10668 7.14732 7.10668 7.40195 7.10668 7.61268C7.10668 7.82342 7.10668 8.01659 7.10668 8.1922C7.12391 8.3678 7.13253 8.54341 7.13253 8.71903C7.13253 8.87707 7.13253 9.07024 7.13253 9.29854V9.56195C7.06361 9.86049 7.04638 10.159 7.08084 10.4576C7.1153 10.7561 7.13253 11.0546 7.13253 11.3532V17.359Z" fill="black"/>
<path d="M21.7757 17.3854L21.5948 17.4117C21.5087 17.4293 21.4484 17.4293 21.4139 17.4117C21.3967 17.4117 21.3192 17.4117 21.1813 17.4117C21.1641 17.4117 21.1124 17.4205 21.0263 17.438C20.9401 17.4556 20.8454 17.4732 20.742 17.4907C20.6387 17.5083 20.5267 17.5083 20.4061 17.4907C20.2855 17.4907 20.1907 17.4732 20.1218 17.438C20.0357 17.438 19.9754 17.4293 19.9409 17.4117C19.9064 17.3941 19.8461 17.3854 19.76 17.3854C19.6739 17.3151 19.6222 17.2098 19.605 17.0693C19.605 16.9288 19.605 16.8146 19.605 16.7268V16.0683L19.3982 16.358L18.933 16.8059C18.7608 16.9288 18.6143 17.0254 18.4937 17.0956C18.3904 17.1834 18.2611 17.2712 18.1061 17.359C17.8477 17.5171 17.5634 17.6224 17.2533 17.6751C16.9604 17.7278 16.6848 17.7541 16.4263 17.7541C16.1679 17.7541 15.8923 17.7015 15.5994 17.5961C15.3237 17.4907 15.0739 17.3941 14.8499 17.3063C14.781 17.2888 14.7121 17.2537 14.6432 17.201C14.5915 17.1659 14.5398 17.1307 14.4881 17.0956C14.3848 17.0078 14.2642 16.92 14.1263 16.8322C14.0057 16.7444 13.9024 16.6566 13.8162 16.5688C13.7646 16.5337 13.7129 16.4985 13.6612 16.4634C13.6267 16.4107 13.575 16.3668 13.5061 16.3317C13.42 16.279 13.3425 16.1912 13.2735 16.0683C13.1874 15.8751 13.0754 15.6907 12.9376 15.5151C12.817 15.322 12.7136 15.1024 12.6275 14.8566C12.5758 14.6634 12.5069 14.479 12.4207 14.3034C12.3346 14.1278 12.2915 13.961 12.2915 13.8029C12.2915 13.7151 12.2829 13.5659 12.2657 13.3551C12.2485 13.1444 12.2398 12.9951 12.2398 12.9073C12.2398 12.7493 12.2398 12.6263 12.2398 12.5385C12.2571 12.4507 12.2657 12.319 12.2657 12.1434C12.2657 12.0556 12.2743 11.9678 12.2915 11.88C12.326 11.7746 12.3604 11.6429 12.3949 11.4849C12.4294 11.2917 12.4552 11.0898 12.4724 10.879C12.4897 10.6507 12.5155 10.4663 12.55 10.3259C12.6706 10.0976 12.7481 9.95707 12.7825 9.90439C12.8342 9.85171 12.8773 9.75512 12.9118 9.61463C12.9462 9.50927 12.9893 9.37756 13.041 9.21951C13.1099 9.0439 13.2046 8.9122 13.3252 8.82439C13.3769 8.78927 13.4544 8.72781 13.5578 8.64C13.6612 8.5522 13.7646 8.45561 13.8679 8.35024C13.9885 8.24488 14.0919 8.15707 14.178 8.08683C14.2642 7.99902 14.3245 7.95512 14.3589 7.95512L14.8241 7.74439C14.9619 7.69171 15.117 7.65659 15.2893 7.63902C15.4615 7.6039 15.6252 7.58634 15.7803 7.58634L16.5814 7.56C16.6675 7.56 16.7623 7.56 16.8657 7.56C16.9862 7.56 17.0638 7.56878 17.0982 7.58634C17.1844 7.58634 17.2705 7.61268 17.3567 7.66537C17.4428 7.71805 17.5289 7.74439 17.6151 7.74439C17.7012 7.74439 17.8046 7.77951 17.9252 7.84976C18.063 7.90244 18.175 7.97268 18.2611 8.06049C18.4334 8.13073 18.5626 8.21854 18.6488 8.3239C18.7522 8.41171 18.8469 8.49951 18.933 8.58732C19.0192 8.67512 19.0967 8.76293 19.1656 8.85073C19.2518 8.92098 19.3379 9 19.4241 9.08781C19.4241 9.14049 19.4585 9.18439 19.5274 9.21951C19.5619 9.23707 19.5877 9.25463 19.605 9.2722C19.6394 9.23707 19.6566 9.16683 19.6566 9.06146C19.6739 8.9561 19.7083 8.85951 19.76 8.77171C19.7772 8.52585 19.7859 8.30634 19.7859 8.11317C19.8031 7.90244 19.8203 7.76195 19.8375 7.69171C19.8203 7.62146 19.8289 7.52488 19.8634 7.40195C19.8978 7.26146 19.9581 7.20878 20.0443 7.2439C20.0787 7.22634 20.1563 7.22634 20.2769 7.2439C20.3975 7.26146 20.5353 7.28781 20.6903 7.32293C20.8454 7.34049 21.0004 7.35805 21.1555 7.37561C21.3278 7.39317 21.4742 7.40195 21.5948 7.40195C21.6121 7.40195 21.6207 7.44585 21.6207 7.53366C21.6207 7.62146 21.6121 7.69171 21.5948 7.74439L21.7499 10.2732V13.118C21.7499 13.1707 21.7413 13.2234 21.724 13.2761C21.724 13.3288 21.724 13.3815 21.724 13.4341C21.7413 13.5922 21.7499 13.759 21.7499 13.9346C21.7499 14.0927 21.7499 14.2595 21.7499 14.4351C21.7671 14.558 21.7671 14.6898 21.7499 14.8302C21.7499 14.9532 21.7499 15.0849 21.7499 15.2254C21.7499 15.3307 21.7499 15.48 21.7499 15.6732C21.7671 15.8488 21.7757 16.0332 21.7757 16.2263C21.7757 16.4195 21.7757 16.6039 21.7757 16.7795C21.7757 16.9727 21.7757 17.1307 21.7757 17.2537V17.3854ZM18.442 13.3288C18.442 13.2234 18.4593 12.9951 18.4937 12.6439C18.5282 12.2751 18.4507 11.8273 18.2611 11.3005C18.2095 11.16 18.1319 11.0107 18.0286 10.8527C17.9252 10.6946 17.7615 10.5717 17.5376 10.4839C17.417 10.4488 17.305 10.4137 17.2016 10.3785C17.0982 10.3259 16.9862 10.3083 16.8657 10.3259C16.7451 10.361 16.59 10.44 16.4005 10.5629C16.2282 10.6859 16.0818 10.8351 15.9612 11.0107C15.875 11.0985 15.8233 11.1951 15.8061 11.3005C15.7889 11.4059 15.7717 11.5288 15.7544 11.6693C15.7027 11.8976 15.6597 12.0732 15.6252 12.1961C15.608 12.319 15.5994 12.4771 15.5994 12.6702C15.5994 13.0215 15.6941 13.3288 15.8836 13.5922C16.0904 13.8556 16.2196 14.0312 16.2713 14.119C16.323 14.1717 16.366 14.2068 16.4005 14.2244C16.4522 14.2244 16.5211 14.2683 16.6072 14.3561C16.7795 14.4439 16.9432 14.4615 17.0982 14.4088C17.2533 14.3385 17.4256 14.2595 17.6151 14.1717H17.7701C17.9252 14.0839 18.0544 13.9961 18.1578 13.9083C18.2611 13.8205 18.3559 13.6888 18.442 13.5132V13.3288Z" fill="black"/>
<path d="M28.8646 13.3288C28.8819 13.3639 28.9077 13.4254 28.9422 13.5132C28.9766 13.5834 29.0111 13.6273 29.0455 13.6449C29.1317 13.6449 29.1834 13.6098 29.2006 13.5395C29.235 13.4517 29.2953 13.3551 29.3815 13.2498C29.6055 12.7932 29.795 12.4068 29.95 12.0907C30.1223 11.7571 30.3204 11.3795 30.5444 10.958L31.0354 9.74634C31.1043 9.62341 31.1991 9.45659 31.3197 9.24585C31.4575 9.01756 31.5436 8.84195 31.5781 8.71903C31.6126 8.61366 31.6384 8.53463 31.6556 8.48195C31.6901 8.42927 31.7245 8.34146 31.759 8.21854C31.759 8.20098 31.7762 8.14829 31.8107 8.06049C31.8624 7.97268 31.9141 7.88488 31.9657 7.79707C32.0174 7.70927 32.0605 7.63024 32.0949 7.56C32.1466 7.4722 32.1811 7.41073 32.1983 7.37561C32.5429 7.46341 32.853 7.56 33.1286 7.66537C33.4043 7.75317 33.7058 7.88488 34.0331 8.06049C33.947 8.21854 33.8781 8.35024 33.8264 8.45561C33.7919 8.54341 33.7575 8.64 33.723 8.74537C33.6197 8.9561 33.4904 9.17561 33.3354 9.4039C33.1976 9.61463 33.1114 9.75512 33.077 9.82537L32.6118 10.958C32.474 11.2215 32.3189 11.4849 32.1466 11.7483C32.1294 11.7834 32.1036 11.8361 32.0691 11.9063C32.0519 11.959 32.026 12.0029 31.9916 12.038C31.9054 12.1785 31.8021 12.3805 31.6815 12.6439C31.5609 12.9073 31.423 13.1883 31.268 13.4868C31.1302 13.7678 30.9923 14.04 30.8545 14.3034C30.7339 14.5493 30.6305 14.7249 30.5444 14.8302C30.4066 15.0937 30.286 15.322 30.1826 15.5151C30.0965 15.7083 29.9931 15.9366 29.8725 16.2C29.8553 16.2878 29.8208 16.3756 29.7691 16.4634C29.7347 16.5337 29.7002 16.6127 29.6658 16.7005C29.6313 16.7883 29.5968 16.8761 29.5624 16.9639C29.5279 17.0517 29.4676 17.1395 29.3815 17.2273C29.347 17.2449 29.2695 17.2624 29.1489 17.28C29.0283 17.2976 28.8991 17.3151 28.7613 17.3327C28.6234 17.3502 28.4942 17.359 28.3736 17.359C28.253 17.3766 28.1669 17.3766 28.1152 17.359C28.0808 17.3415 28.0377 17.2976 27.986 17.2273C27.9343 17.1571 27.8826 17.078 27.8309 16.9902C27.7965 16.92 27.762 16.841 27.7276 16.7532C27.6931 16.6829 27.6673 16.639 27.65 16.6215L27.2107 16.0156C27.159 15.9278 27.0557 15.7434 26.9006 15.4624C26.7628 15.1639 26.5991 14.8917 26.4096 14.6459L25.8928 13.6449C25.8411 13.522 25.7635 13.3639 25.6602 13.1707C25.5568 12.96 25.462 12.802 25.3759 12.6966C25.307 12.6088 25.2553 12.5122 25.2208 12.4068C25.2036 12.3015 25.1519 12.1522 25.0658 11.959C24.9797 11.8712 24.8763 11.6956 24.7557 11.4322C24.6351 11.1512 24.4886 10.9229 24.3164 10.7473C24.2819 10.6946 24.2216 10.598 24.1355 10.4576C24.0493 10.3171 23.9632 10.1941 23.877 10.0888C23.7909 9.89561 23.6961 9.71122 23.5928 9.53561C23.4894 9.36 23.3688 9.14927 23.231 8.90342C23.2482 8.88585 23.2654 8.85951 23.2827 8.82439C23.2999 8.80683 23.3516 8.76293 23.4377 8.69268C23.5411 8.60488 23.6531 8.50829 23.7737 8.40293C23.8943 8.29756 24.0752 8.1922 24.3164 8.08683L25.2208 7.37561C25.2553 7.37561 25.2898 7.38439 25.3242 7.40195C25.3759 7.41951 25.419 7.43707 25.4534 7.45463L25.531 7.53366C25.7549 7.76195 25.91 7.99902 25.9961 8.24488C26.0995 8.49073 26.2459 8.73659 26.4354 8.98244C26.4871 9.07024 26.5474 9.19317 26.6163 9.35122C26.7025 9.50927 26.78 9.6761 26.8489 9.85171C26.9351 10.0273 27.0212 10.1941 27.1073 10.3522C27.1935 10.4927 27.2624 10.6068 27.3141 10.6946C27.5897 11.0634 27.8568 11.5024 28.1152 12.0117C28.3909 12.521 28.6407 12.96 28.8646 13.3288Z" fill="black"/>
<path d="M37.4308 7.19122C37.5514 7.1561 37.6979 7.10341 37.8701 7.03317C38.0424 6.96293 38.2147 6.9278 38.387 6.9278C38.611 6.9278 38.8177 6.9278 39.0072 6.9278C39.1967 6.91024 39.4035 6.90146 39.6274 6.90146C39.7997 6.90146 39.9634 6.91024 40.1184 6.9278C40.2907 6.9278 40.4458 6.95415 40.5836 7.00683C40.6181 7.00683 40.6611 7.01561 40.7128 7.03317C40.7645 7.05073 40.8334 7.10341 40.9195 7.19122C41.0918 7.2439 41.2555 7.33171 41.4106 7.45463C41.5656 7.57756 41.7034 7.72683 41.824 7.90244C41.9619 8.07805 42.0825 8.26244 42.1858 8.45561C42.3064 8.63122 42.4098 8.80683 42.4959 8.98244C42.5821 9.12293 42.6338 9.30732 42.651 9.53561C42.6855 9.7639 42.7285 9.94829 42.7802 10.0888C42.7802 10.3346 42.7888 10.5717 42.806 10.8C42.8405 11.0283 42.8577 11.2654 42.8577 11.5112C42.8577 11.9151 42.8491 12.3015 42.8319 12.6702C42.8147 13.039 42.806 13.4254 42.806 13.8293L42.7544 14.6985C42.7544 14.7688 42.7199 14.8917 42.651 15.0673C42.5821 15.2429 42.539 15.3746 42.5218 15.4624C42.4701 15.638 42.4012 15.8488 42.315 16.0946C42.2289 16.3229 42.1686 16.4546 42.1341 16.4898C42.048 16.5776 41.9877 16.6566 41.9532 16.7268C41.9188 16.7971 41.8843 16.8673 41.8499 16.9376C41.8327 17.0078 41.7982 17.0693 41.7465 17.122C41.7121 17.1746 41.6431 17.2273 41.5398 17.28C41.4536 17.3151 41.3503 17.3678 41.2297 17.438C41.1091 17.5259 40.9971 17.6049 40.8937 17.6751C40.8076 17.7102 40.7645 17.7366 40.7645 17.7541C40.7645 17.7893 40.7042 17.8244 40.5836 17.8595L40.1184 17.9649C39.9117 18 39.7394 18.0088 39.6016 17.9912C39.481 17.9737 39.3432 17.9649 39.1881 17.9649C38.7057 17.9649 38.2233 17.8683 37.7409 17.6751C37.5859 17.6751 37.4308 17.64 37.2758 17.5698C37.1379 17.4995 37.0346 17.4205 36.9657 17.3327C36.8795 17.2624 36.7934 17.1834 36.7072 17.0956C36.6211 17.0254 36.5349 16.9463 36.4488 16.8585C36.311 16.7005 36.199 16.5424 36.1128 16.3844C36.0267 16.2263 35.9406 16.0595 35.8544 15.8839C35.7683 15.6907 35.6735 15.4976 35.5702 15.3044C35.4668 15.0937 35.3979 14.8654 35.3634 14.6195C35.329 14.2156 35.2945 13.8468 35.26 13.5132C35.2428 13.1795 35.2342 12.8459 35.2342 12.5122V11.4322C35.217 11.3971 35.2084 11.3268 35.2084 11.2215C35.2084 11.1161 35.217 11.0459 35.2342 11.0107C35.2342 10.9229 35.2342 10.8351 35.2342 10.7473C35.2514 10.642 35.2687 10.5454 35.2859 10.4576C35.3031 10.3171 35.3117 10.1766 35.3117 10.0361C35.3117 9.89561 35.3548 9.75512 35.4409 9.61463C35.4237 9.64976 35.4323 9.62341 35.4668 9.53561C35.5185 9.43024 35.5702 9.32488 35.6218 9.21951C35.6735 9.09659 35.7166 8.99122 35.7511 8.90342C35.7855 8.81561 35.8027 8.78049 35.8027 8.79805L35.9836 8.45561C36.0353 8.40293 36.087 8.34146 36.1387 8.27122C36.1904 8.20098 36.2593 8.12195 36.3454 8.03415C36.4488 7.94634 36.578 7.8322 36.7331 7.69171C36.9054 7.55122 37.1379 7.38439 37.4308 7.19122ZM39.3173 11.5639C39.2484 11.5639 39.1795 11.599 39.1106 11.6693C39.0589 11.7395 39.0244 11.801 39.0072 11.8537C38.8866 12.1171 38.8263 12.3366 38.8263 12.5122C38.8263 12.9863 38.99 13.3024 39.3173 13.4605C39.4035 13.4605 39.4724 13.4341 39.5241 13.3815C39.593 13.3112 39.6274 13.241 39.6274 13.1707C39.6274 12.9951 39.6447 12.7932 39.6791 12.5649C39.7308 12.3366 39.7136 12.0995 39.6274 11.8537C39.5413 11.7659 39.4896 11.6956 39.4724 11.6429C39.4551 11.5902 39.4035 11.5639 39.3173 11.5639Z" fill="black"/>
<path d="M47.2564 9.95707C47.2736 9.9922 47.2822 10.08 47.2822 10.2205C47.2822 10.361 47.2822 10.4663 47.2822 10.5366C47.2478 10.6244 47.2306 10.7122 47.2306 10.8C47.2306 10.8702 47.2306 10.9493 47.2306 11.0371C47.2306 11.1424 47.2392 11.3444 47.2564 11.6429C47.2736 11.9239 47.2822 12.1259 47.2822 12.2488V12.8283C47.2822 12.9863 47.2822 13.1444 47.2822 13.3024C47.2995 13.4605 47.3081 13.6185 47.3081 13.7766C47.3081 13.8995 47.2995 14.0224 47.2822 14.1454C47.265 14.2507 47.265 14.3649 47.2822 14.4878C47.2822 14.5932 47.2909 14.6985 47.3081 14.8039C47.3253 14.8917 47.3339 14.9883 47.3339 15.0937V17.4907C47.3339 17.5785 47.3426 17.6663 47.3598 17.7541C47.3942 17.842 47.3856 17.8771 47.3339 17.8595C47.1617 17.8595 46.9635 17.8771 46.7396 17.9122C46.5156 17.9649 46.3089 17.9912 46.1193 17.9912C45.9643 17.9912 45.8265 17.9824 45.7059 17.9649C45.6025 17.9473 45.4561 17.8946 45.2665 17.8068V17.4644C45.1804 17.1307 45.1287 16.8322 45.1115 16.5688C45.1115 16.2878 45.1115 16.0244 45.1115 15.7785C45.1115 15.5854 45.1115 15.4098 45.1115 15.2517C45.1115 15.0761 45.1287 14.9005 45.1632 14.7249C45.1632 14.6371 45.1459 14.5668 45.1115 14.5141C45.1115 14.4966 45.1029 14.4527 45.0856 14.3824C45.0856 14.2946 45.0856 14.2068 45.0856 14.119C45.0856 14.0312 45.0856 13.9522 45.0856 13.882C45.0856 13.7941 45.0856 13.7327 45.0856 13.6976V12.5912C45.0856 12.3805 45.077 12.1698 45.0598 11.959C45.0598 11.7483 45.077 11.5376 45.1115 11.3268C45.1287 11.3093 45.1373 11.2302 45.1373 11.0898C45.1546 10.9317 45.1718 10.7649 45.189 10.5893C45.2062 10.3961 45.2149 10.2205 45.2149 10.0624C45.2321 9.88683 45.2407 9.78146 45.2407 9.74634C45.2579 9.46537 45.2579 9.18439 45.2407 8.90342C45.2407 8.62244 45.2493 8.35024 45.2665 8.08683C45.2665 7.57756 45.2579 7.08585 45.2407 6.61171C45.2407 6.12 45.2493 5.62829 45.2665 5.13659C45.2665 4.82049 45.2665 4.51317 45.2665 4.21463C45.2665 3.89854 45.2579 3.59122 45.2407 3.29268C45.2235 3.13463 45.2149 3.01171 45.2149 2.9239C45.2321 2.8361 45.2407 2.75707 45.2407 2.68683C45.2579 2.59902 45.2665 2.51122 45.2665 2.42341C45.2838 2.33561 45.2838 2.2039 45.2665 2.02829C45.2665 1.85268 45.2752 1.68585 45.2924 1.52781C45.3096 1.3522 45.3182 1.18537 45.3182 1.02732C45.3182 0.851707 45.3096 0.702439 45.2924 0.579513C45.2924 0.456585 45.2924 0.307317 45.2924 0.131707L45.4216 0C45.5939 0 45.7834 0.00878037 45.9901 0.0263411C46.1969 0.0439029 46.3778 0.0439029 46.5328 0.0263411C46.6706 0.00878037 46.774 0 46.8429 0C46.9118 0 47.0152 0 47.153 0C47.2392 0 47.3081 0.0263416 47.3598 0.0790249C47.3942 0.658537 47.3942 1.22927 47.3598 1.79122C47.3253 2.35317 47.3081 2.94146 47.3081 3.5561V5.4C47.2909 6.0322 47.265 6.62049 47.2306 7.16488C47.2133 7.70927 47.2047 8.24488 47.2047 8.77171C47.2047 8.96488 47.2133 9.16683 47.2306 9.37756C47.2478 9.57073 47.2564 9.7639 47.2564 9.95707Z" fill="black"/>
<path d="M59 17.3854L58.8191 17.4117C58.733 17.4293 58.6727 17.4293 58.6382 17.4117C58.621 17.4117 58.5435 17.4117 58.4056 17.4117C58.3884 17.4117 58.3367 17.4205 58.2506 17.438C58.1644 17.4556 58.0697 17.4732 57.9663 17.4907C57.8629 17.5083 57.7509 17.5083 57.6303 17.4907C57.5097 17.4907 57.415 17.4732 57.3461 17.438C57.2599 17.438 57.1996 17.4293 57.1652 17.4117C57.1307 17.3941 57.0704 17.3854 56.9843 17.3854C56.8981 17.3151 56.8465 17.2098 56.8292 17.0693C56.8292 16.9288 56.8292 16.8146 56.8292 16.7268V16.0683L56.6225 16.358L56.1573 16.8059C55.985 16.9288 55.8386 17.0254 55.718 17.0956C55.6146 17.1834 55.4854 17.2712 55.3304 17.359C55.0719 17.5171 54.7877 17.6224 54.4776 17.6751C54.1847 17.7278 53.909 17.7541 53.6506 17.7541C53.3922 17.7541 53.1165 17.7015 52.8236 17.5961C52.548 17.4907 52.2982 17.3941 52.0742 17.3063C52.0053 17.2888 51.9364 17.2537 51.8675 17.201C51.8158 17.1659 51.7641 17.1307 51.7124 17.0956C51.6091 17.0078 51.4884 16.92 51.3506 16.8322C51.23 16.7444 51.1267 16.6566 51.0405 16.5688C50.9888 16.5337 50.9371 16.4985 50.8855 16.4634C50.851 16.4107 50.7993 16.3668 50.7304 16.3317C50.6443 16.279 50.5667 16.1912 50.4978 16.0683C50.4117 15.8751 50.2997 15.6907 50.1619 15.5151C50.0413 15.322 49.9379 15.1024 49.8518 14.8566C49.8001 14.6634 49.7312 14.479 49.645 14.3034C49.5589 14.1278 49.5158 13.961 49.5158 13.8029C49.5158 13.7151 49.5072 13.5659 49.49 13.3551C49.4727 13.1444 49.4641 12.9951 49.4641 12.9073C49.4641 12.7493 49.4641 12.6263 49.4641 12.5385C49.4814 12.4507 49.49 12.319 49.49 12.1434C49.49 12.0556 49.4986 11.9678 49.5158 11.88C49.5503 11.7746 49.5847 11.6429 49.6192 11.4849C49.6536 11.2917 49.6795 11.0898 49.6967 10.879C49.7139 10.6507 49.7398 10.4663 49.7742 10.3259C49.8948 10.0976 49.9724 9.95707 50.0068 9.90439C50.0585 9.85171 50.1016 9.75512 50.136 9.61463C50.1705 9.50927 50.2136 9.37756 50.2652 9.21951C50.3342 9.0439 50.4289 8.9122 50.5495 8.82439C50.6012 8.78927 50.6787 8.72781 50.7821 8.64C50.8855 8.5522 50.9888 8.45561 51.0922 8.35024C51.2128 8.24488 51.3162 8.15707 51.4023 8.08683C51.4885 7.99902 51.5487 7.95512 51.5832 7.95512L52.0484 7.74439C52.1862 7.69171 52.3413 7.65659 52.5135 7.63902C52.6858 7.6039 52.8495 7.58634 53.0045 7.58634L53.8057 7.56C53.8918 7.56 53.9866 7.56 54.0899 7.56C54.2105 7.56 54.2881 7.56878 54.3225 7.58634C54.4086 7.58634 54.4948 7.61268 54.5809 7.66537C54.6671 7.71805 54.7532 7.74439 54.8394 7.74439C54.9255 7.74439 55.0289 7.77951 55.1495 7.84976C55.2873 7.90244 55.3993 7.97268 55.4854 8.06049C55.6577 8.13073 55.7869 8.21854 55.8731 8.3239C55.9764 8.41171 56.0712 8.49951 56.1573 8.58732C56.2435 8.67512 56.321 8.76293 56.3899 8.85073C56.4761 8.92098 56.5622 9 56.6483 9.08781C56.6483 9.14049 56.6828 9.18439 56.7517 9.21951C56.7862 9.23707 56.812 9.25463 56.8292 9.2722C56.8637 9.23707 56.8809 9.16683 56.8809 9.06146C56.8981 8.9561 56.9326 8.85951 56.9843 8.77171C57.0015 8.52585 57.0101 8.30634 57.0101 8.11317C57.0274 7.90244 57.0446 7.76195 57.0618 7.69171C57.0446 7.62146 57.0532 7.52488 57.0877 7.40195C57.1221 7.26146 57.1824 7.20878 57.2686 7.2439C57.303 7.22634 57.3805 7.22634 57.5011 7.2439C57.6217 7.26146 57.7596 7.28781 57.9146 7.32293C58.0697 7.34049 58.2247 7.35805 58.3798 7.37561C58.5521 7.39317 58.6985 7.40195 58.8191 7.40195C58.8363 7.40195 58.8449 7.44585 58.8449 7.53366C58.8449 7.62146 58.8363 7.69171 58.8191 7.74439L58.9742 10.2732V13.118C58.9742 13.1707 58.9655 13.2234 58.9483 13.2761C58.9483 13.3288 58.9483 13.3815 58.9483 13.4341C58.9655 13.5922 58.9742 13.759 58.9742 13.9346C58.9742 14.0927 58.9742 14.2595 58.9742 14.4351C58.9914 14.558 58.9914 14.6898 58.9742 14.8302C58.9742 14.9532 58.9742 15.0849 58.9742 15.2254C58.9742 15.3307 58.9742 15.48 58.9742 15.6732C58.9914 15.8488 59 16.0332 59 16.2263C59 16.4195 59 16.6039 59 16.7795C59 16.9727 59 17.1307 59 17.2537V17.3854ZM55.6663 13.3288C55.6663 13.2234 55.6835 12.9951 55.718 12.6439C55.7525 12.2751 55.6749 11.8273 55.4854 11.3005C55.4337 11.16 55.3562 11.0107 55.2528 10.8527C55.1495 10.6946 54.9858 10.5717 54.7618 10.4839C54.6412 10.4488 54.5292 10.4137 54.4259 10.3785C54.3225 10.3259 54.2105 10.3083 54.0899 10.3259C53.9693 10.361 53.8143 10.44 53.6248 10.5629C53.4525 10.6859 53.306 10.8351 53.1854 11.0107C53.0993 11.0985 53.0476 11.1951 53.0304 11.3005C53.0132 11.4059 52.9959 11.5288 52.9787 11.6693C52.927 11.8976 52.8839 12.0732 52.8495 12.1961C52.8323 12.319 52.8236 12.4771 52.8236 12.6702C52.8236 13.0215 52.9184 13.3288 53.1079 13.5922C53.3147 13.8556 53.4439 14.0312 53.4955 14.119C53.5472 14.1717 53.5903 14.2068 53.6248 14.2244C53.6764 14.2244 53.7454 14.2683 53.8315 14.3561C54.0038 14.4439 54.1675 14.4615 54.3225 14.4088C54.4776 14.3385 54.6498 14.2595 54.8394 14.1717H54.9944C55.1495 14.0839 55.2787 13.9961 55.3821 13.9083C55.4854 13.8205 55.5802 13.6888 55.6663 13.5132V13.3288Z" fill="black"/>
</svg>
