<svg width="59" height="18" viewBox="0 0 59 18" fill="none" xmlns="http://www.w3.org/2000/svg">
<mask id="path-1-outside-1_4_37" maskUnits="userSpaceOnUse" x="0" y="0" width="59" height="18" fill="black">
<rect fill="white" width="59" height="18"/>
<path d="M1.03516 5.66699L1 3.8125L11.1514 3.59277L11.1162 5.27148L7.01172 5.42969L7.13477 16.5215L5.19238 16.5566V5.5L1.03516 5.66699Z"/>
<path d="M20.7842 17.1279L19.0615 16.8379L19.1846 15.5986C18.4697 16.0557 17.7666 16.3867 17.0752 16.5918C16.3896 16.7969 15.748 16.8994 15.1504 16.8994C14.7285 16.8994 14.3184 16.8438 13.9199 16.7324C13.5273 16.627 13.1816 16.46 12.8828 16.2314C12.5781 16.0088 12.332 15.7246 12.1445 15.3789C11.9629 15.0273 11.8721 14.6143 11.8721 14.1396C11.8721 13.665 11.9424 13.2402 12.083 12.8652C12.2236 12.4902 12.417 12.1592 12.6631 11.8721C12.9092 11.585 13.1992 11.3389 13.5332 11.1338C13.8672 10.9287 14.2275 10.7617 14.6143 10.6328C14.9951 10.5039 15.3965 10.4102 15.8184 10.3516C16.2402 10.2871 16.6592 10.2549 17.0752 10.2549C17.4619 10.2549 17.8223 10.2695 18.1562 10.2988C18.4902 10.3281 18.7861 10.3662 19.0439 10.4131C18.9385 9.99707 18.7949 9.60742 18.6133 9.24414C18.4375 8.88086 18.2031 8.58789 17.9102 8.36523C17.623 8.13672 17.251 8.02246 16.7939 8.02246C16.5654 8.02246 16.3047 8.05762 16.0117 8.12793C15.7188 8.19238 15.3965 8.3125 15.0449 8.48828C14.6934 8.66406 14.3096 8.90723 13.8936 9.21777C13.4775 9.52246 13.0322 9.91504 12.5576 10.3955L11.4941 9.10352C12.0566 8.57617 12.5957 8.14551 13.1113 7.81152C13.627 7.47754 14.1133 7.21387 14.5703 7.02051C15.0215 6.83301 15.4404 6.7041 15.8271 6.63379C16.2197 6.56348 16.5713 6.52832 16.8818 6.52832C17.4268 6.52832 17.9072 6.61914 18.3232 6.80078C18.7451 6.98242 19.1172 7.23438 19.4395 7.55664C19.7617 7.87305 20.0312 8.24805 20.248 8.68164C20.459 9.09766 20.6377 9.56055 20.7842 10.0703C20.9248 10.5684 21.0244 11.084 21.083 11.6172C21.1475 12.1504 21.1797 12.6807 21.1797 13.208C21.1797 13.7705 21.1475 14.374 21.083 15.0186C21.0186 15.6631 20.9189 16.3662 20.7842 17.1279ZM19.3076 13.6387C19.3193 13.3457 19.3281 13.0557 19.334 12.7686C19.3398 12.4814 19.3252 12.1826 19.29 11.8721C19.0029 11.7842 18.7012 11.7139 18.3848 11.6611C18.0684 11.6084 17.752 11.582 17.4355 11.582C16.9082 11.582 16.3955 11.6436 15.8975 11.7666C15.4053 11.8896 14.9805 12.0684 14.623 12.3027C14.2656 12.5371 13.9961 12.8242 13.8145 13.1641C13.6387 13.5039 13.6035 13.8906 13.709 14.3242C13.791 14.6758 13.9492 14.9219 14.1836 15.0625C14.4238 15.2031 14.7109 15.2734 15.0449 15.2734C15.4785 15.2734 15.9648 15.1826 16.5039 15.001C17.043 14.8135 17.5615 14.5908 18.0596 14.333C18.5635 14.0752 18.9795 13.8438 19.3076 13.6387Z"/>
<path d="M27.1211 14.9922L29.916 7.12598L31.7266 7.37207L28.2725 16.627L25.7939 16.5918L22.709 7.71484L24.4932 7.44238L27.1211 14.9922Z"/>
<path d="M42.2031 12.0215C42.2031 12.7598 42.0801 13.4424 41.834 14.0693C41.5879 14.6963 41.251 15.2412 40.8232 15.7041C40.3955 16.167 39.8945 16.5273 39.3203 16.7852C38.7461 17.0488 38.1338 17.1807 37.4834 17.1807C36.1533 17.1807 35.0488 16.7061 34.1699 15.7568C33.7422 15.3057 33.4053 14.7637 33.1592 14.1309C32.9131 13.498 32.79 12.7949 32.79 12.0215C32.79 11.2422 32.9131 10.5361 33.1592 9.90332C33.4053 9.26465 33.7422 8.71973 34.1699 8.26855C34.5918 7.81738 35.0869 7.46875 35.6553 7.22266C36.2236 6.97656 36.833 6.85352 37.4834 6.85352C38.1338 6.85352 38.7461 6.98535 39.3203 7.24902C39.8945 7.50684 40.3955 7.86426 40.8232 8.32129C41.251 8.78418 41.5879 9.33203 41.834 9.96484C42.0801 10.5918 42.2031 11.2773 42.2031 12.0215ZM40.3486 12.0039C40.3486 11.582 40.2959 11.1543 40.1904 10.7207C40.085 10.2871 39.918 9.90039 39.6895 9.56055C39.4609 9.21484 39.165 8.93652 38.8018 8.72559C38.4385 8.50879 37.999 8.40039 37.4834 8.40039C36.9854 8.40039 36.5576 8.50879 36.2002 8.72559C35.8428 8.93652 35.5498 9.21484 35.3213 9.56055C35.0928 9.90039 34.9258 10.2871 34.8203 10.7207C34.7148 11.1543 34.6621 11.582 34.6621 12.0039C34.6621 12.4258 34.7178 12.8506 34.8291 13.2783C34.9463 13.7002 35.1221 14.084 35.3564 14.4297C35.5908 14.7695 35.8838 15.0508 36.2354 15.2734C36.5928 15.4902 37.0088 15.5986 37.4834 15.5986C37.9814 15.5986 38.4092 15.4902 38.7666 15.2734C39.1299 15.0508 39.4287 14.7695 39.6631 14.4297C39.8975 14.084 40.0703 13.7002 40.1816 13.2783C40.293 12.8506 40.3486 12.4258 40.3486 12.0039Z"/>
<path d="M47.8633 14.9658L47.6348 16.7148C47.2188 16.709 46.8496 16.6387 46.5273 16.5039C46.2109 16.3691 45.9326 16.1934 45.6924 15.9766C45.4463 15.7656 45.2354 15.5225 45.0596 15.2471C44.8896 14.9717 44.7461 14.6934 44.6289 14.4121C44.3477 13.7441 44.1719 12.9883 44.1016 12.1445L44.3389 1H46.1758L46.0967 3.86523C46.085 4.29883 46.0732 4.71484 46.0615 5.11328C46.0498 5.50586 46.0381 5.88086 46.0264 6.23828C46.0088 6.94727 45.9912 7.58594 45.9736 8.1543C45.9619 8.7168 45.9502 9.21191 45.9385 9.63965C45.9092 10.6533 45.8916 11.4473 45.8857 12.0215C45.8916 12.5605 45.9707 13.0469 46.123 13.4805C46.252 13.8789 46.4541 14.2246 46.7295 14.5176C47.0049 14.8047 47.3828 14.9541 47.8633 14.9658Z"/>
<path d="M57.7861 17.1279L56.0635 16.8379L56.1865 15.5986C55.4717 16.0557 54.7686 16.3867 54.0771 16.5918C53.3916 16.7969 52.75 16.8994 52.1523 16.8994C51.7305 16.8994 51.3203 16.8438 50.9219 16.7324C50.5293 16.627 50.1836 16.46 49.8848 16.2314C49.5801 16.0088 49.334 15.7246 49.1465 15.3789C48.9648 15.0273 48.874 14.6143 48.874 14.1396C48.874 13.665 48.9443 13.2402 49.085 12.8652C49.2256 12.4902 49.4189 12.1592 49.665 11.8721C49.9111 11.585 50.2012 11.3389 50.5352 11.1338C50.8691 10.9287 51.2295 10.7617 51.6162 10.6328C51.9971 10.5039 52.3984 10.4102 52.8203 10.3516C53.2422 10.2871 53.6611 10.2549 54.0771 10.2549C54.4639 10.2549 54.8242 10.2695 55.1582 10.2988C55.4922 10.3281 55.7881 10.3662 56.0459 10.4131C55.9404 9.99707 55.7969 9.60742 55.6152 9.24414C55.4395 8.88086 55.2051 8.58789 54.9121 8.36523C54.625 8.13672 54.2529 8.02246 53.7959 8.02246C53.5674 8.02246 53.3066 8.05762 53.0137 8.12793C52.7207 8.19238 52.3984 8.3125 52.0469 8.48828C51.6953 8.66406 51.3115 8.90723 50.8955 9.21777C50.4795 9.52246 50.0342 9.91504 49.5596 10.3955L48.4961 9.10352C49.0586 8.57617 49.5977 8.14551 50.1133 7.81152C50.6289 7.47754 51.1152 7.21387 51.5723 7.02051C52.0234 6.83301 52.4424 6.7041 52.8291 6.63379C53.2217 6.56348 53.5732 6.52832 53.8838 6.52832C54.4287 6.52832 54.9092 6.61914 55.3252 6.80078C55.7471 6.98242 56.1191 7.23438 56.4414 7.55664C56.7637 7.87305 57.0332 8.24805 57.25 8.68164C57.4609 9.09766 57.6396 9.56055 57.7861 10.0703C57.9268 10.5684 58.0264 11.084 58.085 11.6172C58.1494 12.1504 58.1816 12.6807 58.1816 13.208C58.1816 13.7705 58.1494 14.374 58.085 15.0186C58.0205 15.6631 57.9209 16.3662 57.7861 17.1279ZM56.3096 13.6387C56.3213 13.3457 56.3301 13.0557 56.3359 12.7686C56.3418 12.4814 56.3271 12.1826 56.292 11.8721C56.0049 11.7842 55.7031 11.7139 55.3867 11.6611C55.0703 11.6084 54.7539 11.582 54.4375 11.582C53.9102 11.582 53.3975 11.6436 52.8994 11.7666C52.4072 11.8896 51.9824 12.0684 51.625 12.3027C51.2676 12.5371 50.998 12.8242 50.8164 13.1641C50.6406 13.5039 50.6055 13.8906 50.7109 14.3242C50.793 14.6758 50.9512 14.9219 51.1855 15.0625C51.4258 15.2031 51.7129 15.2734 52.0469 15.2734C52.4805 15.2734 52.9668 15.1826 53.5059 15.001C54.0449 14.8135 54.5635 14.5908 55.0615 14.333C55.5654 14.0752 55.9814 13.8438 56.3096 13.6387Z"/>
</mask>
<path d="M1.03516 5.66699L1 3.8125L11.1514 3.59277L11.1162 5.27148L7.01172 5.42969L7.13477 16.5215L5.19238 16.5566V5.5L1.03516 5.66699Z" fill="black"/>
<path d="M20.7842 17.1279L19.0615 16.8379L19.1846 15.5986C18.4697 16.0557 17.7666 16.3867 17.0752 16.5918C16.3896 16.7969 15.748 16.8994 15.1504 16.8994C14.7285 16.8994 14.3184 16.8438 13.9199 16.7324C13.5273 16.627 13.1816 16.46 12.8828 16.2314C12.5781 16.0088 12.332 15.7246 12.1445 15.3789C11.9629 15.0273 11.8721 14.6143 11.8721 14.1396C11.8721 13.665 11.9424 13.2402 12.083 12.8652C12.2236 12.4902 12.417 12.1592 12.6631 11.8721C12.9092 11.585 13.1992 11.3389 13.5332 11.1338C13.8672 10.9287 14.2275 10.7617 14.6143 10.6328C14.9951 10.5039 15.3965 10.4102 15.8184 10.3516C16.2402 10.2871 16.6592 10.2549 17.0752 10.2549C17.4619 10.2549 17.8223 10.2695 18.1562 10.2988C18.4902 10.3281 18.7861 10.3662 19.0439 10.4131C18.9385 9.99707 18.7949 9.60742 18.6133 9.24414C18.4375 8.88086 18.2031 8.58789 17.9102 8.36523C17.623 8.13672 17.251 8.02246 16.7939 8.02246C16.5654 8.02246 16.3047 8.05762 16.0117 8.12793C15.7188 8.19238 15.3965 8.3125 15.0449 8.48828C14.6934 8.66406 14.3096 8.90723 13.8936 9.21777C13.4775 9.52246 13.0322 9.91504 12.5576 10.3955L11.4941 9.10352C12.0566 8.57617 12.5957 8.14551 13.1113 7.81152C13.627 7.47754 14.1133 7.21387 14.5703 7.02051C15.0215 6.83301 15.4404 6.7041 15.8271 6.63379C16.2197 6.56348 16.5713 6.52832 16.8818 6.52832C17.4268 6.52832 17.9072 6.61914 18.3232 6.80078C18.7451 6.98242 19.1172 7.23438 19.4395 7.55664C19.7617 7.87305 20.0312 8.24805 20.248 8.68164C20.459 9.09766 20.6377 9.56055 20.7842 10.0703C20.9248 10.5684 21.0244 11.084 21.083 11.6172C21.1475 12.1504 21.1797 12.6807 21.1797 13.208C21.1797 13.7705 21.1475 14.374 21.083 15.0186C21.0186 15.6631 20.9189 16.3662 20.7842 17.1279ZM19.3076 13.6387C19.3193 13.3457 19.3281 13.0557 19.334 12.7686C19.3398 12.4814 19.3252 12.1826 19.29 11.8721C19.0029 11.7842 18.7012 11.7139 18.3848 11.6611C18.0684 11.6084 17.752 11.582 17.4355 11.582C16.9082 11.582 16.3955 11.6436 15.8975 11.7666C15.4053 11.8896 14.9805 12.0684 14.623 12.3027C14.2656 12.5371 13.9961 12.8242 13.8145 13.1641C13.6387 13.5039 13.6035 13.8906 13.709 14.3242C13.791 14.6758 13.9492 14.9219 14.1836 15.0625C14.4238 15.2031 14.7109 15.2734 15.0449 15.2734C15.4785 15.2734 15.9648 15.1826 16.5039 15.001C17.043 14.8135 17.5615 14.5908 18.0596 14.333C18.5635 14.0752 18.9795 13.8438 19.3076 13.6387Z" fill="black"/>
<path d="M27.1211 14.9922L29.916 7.12598L31.7266 7.37207L28.2725 16.627L25.7939 16.5918L22.709 7.71484L24.4932 7.44238L27.1211 14.9922Z" fill="black"/>
<path d="M42.2031 12.0215C42.2031 12.7598 42.0801 13.4424 41.834 14.0693C41.5879 14.6963 41.251 15.2412 40.8232 15.7041C40.3955 16.167 39.8945 16.5273 39.3203 16.7852C38.7461 17.0488 38.1338 17.1807 37.4834 17.1807C36.1533 17.1807 35.0488 16.7061 34.1699 15.7568C33.7422 15.3057 33.4053 14.7637 33.1592 14.1309C32.9131 13.498 32.79 12.7949 32.79 12.0215C32.79 11.2422 32.9131 10.5361 33.1592 9.90332C33.4053 9.26465 33.7422 8.71973 34.1699 8.26855C34.5918 7.81738 35.0869 7.46875 35.6553 7.22266C36.2236 6.97656 36.833 6.85352 37.4834 6.85352C38.1338 6.85352 38.7461 6.98535 39.3203 7.24902C39.8945 7.50684 40.3955 7.86426 40.8232 8.32129C41.251 8.78418 41.5879 9.33203 41.834 9.96484C42.0801 10.5918 42.2031 11.2773 42.2031 12.0215ZM40.3486 12.0039C40.3486 11.582 40.2959 11.1543 40.1904 10.7207C40.085 10.2871 39.918 9.90039 39.6895 9.56055C39.4609 9.21484 39.165 8.93652 38.8018 8.72559C38.4385 8.50879 37.999 8.40039 37.4834 8.40039C36.9854 8.40039 36.5576 8.50879 36.2002 8.72559C35.8428 8.93652 35.5498 9.21484 35.3213 9.56055C35.0928 9.90039 34.9258 10.2871 34.8203 10.7207C34.7148 11.1543 34.6621 11.582 34.6621 12.0039C34.6621 12.4258 34.7178 12.8506 34.8291 13.2783C34.9463 13.7002 35.1221 14.084 35.3564 14.4297C35.5908 14.7695 35.8838 15.0508 36.2354 15.2734C36.5928 15.4902 37.0088 15.5986 37.4834 15.5986C37.9814 15.5986 38.4092 15.4902 38.7666 15.2734C39.1299 15.0508 39.4287 14.7695 39.6631 14.4297C39.8975 14.084 40.0703 13.7002 40.1816 13.2783C40.293 12.8506 40.3486 12.4258 40.3486 12.0039Z" fill="black"/>
<path d="M47.8633 14.9658L47.6348 16.7148C47.2188 16.709 46.8496 16.6387 46.5273 16.5039C46.2109 16.3691 45.9326 16.1934 45.6924 15.9766C45.4463 15.7656 45.2354 15.5225 45.0596 15.2471C44.8896 14.9717 44.7461 14.6934 44.6289 14.4121C44.3477 13.7441 44.1719 12.9883 44.1016 12.1445L44.3389 1H46.1758L46.0967 3.86523C46.085 4.29883 46.0732 4.71484 46.0615 5.11328C46.0498 5.50586 46.0381 5.88086 46.0264 6.23828C46.0088 6.94727 45.9912 7.58594 45.9736 8.1543C45.9619 8.7168 45.9502 9.21191 45.9385 9.63965C45.9092 10.6533 45.8916 11.4473 45.8857 12.0215C45.8916 12.5605 45.9707 13.0469 46.123 13.4805C46.252 13.8789 46.4541 14.2246 46.7295 14.5176C47.0049 14.8047 47.3828 14.9541 47.8633 14.9658Z" fill="black"/>
<path d="M57.7861 17.1279L56.0635 16.8379L56.1865 15.5986C55.4717 16.0557 54.7686 16.3867 54.0771 16.5918C53.3916 16.7969 52.75 16.8994 52.1523 16.8994C51.7305 16.8994 51.3203 16.8438 50.9219 16.7324C50.5293 16.627 50.1836 16.46 49.8848 16.2314C49.5801 16.0088 49.334 15.7246 49.1465 15.3789C48.9648 15.0273 48.874 14.6143 48.874 14.1396C48.874 13.665 48.9443 13.2402 49.085 12.8652C49.2256 12.4902 49.4189 12.1592 49.665 11.8721C49.9111 11.585 50.2012 11.3389 50.5352 11.1338C50.8691 10.9287 51.2295 10.7617 51.6162 10.6328C51.9971 10.5039 52.3984 10.4102 52.8203 10.3516C53.2422 10.2871 53.6611 10.2549 54.0771 10.2549C54.4639 10.2549 54.8242 10.2695 55.1582 10.2988C55.4922 10.3281 55.7881 10.3662 56.0459 10.4131C55.9404 9.99707 55.7969 9.60742 55.6152 9.24414C55.4395 8.88086 55.2051 8.58789 54.9121 8.36523C54.625 8.13672 54.2529 8.02246 53.7959 8.02246C53.5674 8.02246 53.3066 8.05762 53.0137 8.12793C52.7207 8.19238 52.3984 8.3125 52.0469 8.48828C51.6953 8.66406 51.3115 8.90723 50.8955 9.21777C50.4795 9.52246 50.0342 9.91504 49.5596 10.3955L48.4961 9.10352C49.0586 8.57617 49.5977 8.14551 50.1133 7.81152C50.6289 7.47754 51.1152 7.21387 51.5723 7.02051C52.0234 6.83301 52.4424 6.7041 52.8291 6.63379C53.2217 6.56348 53.5732 6.52832 53.8838 6.52832C54.4287 6.52832 54.9092 6.61914 55.3252 6.80078C55.7471 6.98242 56.1191 7.23438 56.4414 7.55664C56.7637 7.87305 57.0332 8.24805 57.25 8.68164C57.4609 9.09766 57.6396 9.56055 57.7861 10.0703C57.9268 10.5684 58.0264 11.084 58.085 11.6172C58.1494 12.1504 58.1816 12.6807 58.1816 13.208C58.1816 13.7705 58.1494 14.374 58.085 15.0186C58.0205 15.6631 57.9209 16.3662 57.7861 17.1279ZM56.3096 13.6387C56.3213 13.3457 56.3301 13.0557 56.3359 12.7686C56.3418 12.4814 56.3271 12.1826 56.292 11.8721C56.0049 11.7842 55.7031 11.7139 55.3867 11.6611C55.0703 11.6084 54.7539 11.582 54.4375 11.582C53.9102 11.582 53.3975 11.6436 52.8994 11.7666C52.4072 11.8896 51.9824 12.0684 51.625 12.3027C51.2676 12.5371 50.998 12.8242 50.8164 13.1641C50.6406 13.5039 50.6055 13.8906 50.7109 14.3242C50.793 14.6758 50.9512 14.9219 51.1855 15.0625C51.4258 15.2031 51.7129 15.2734 52.0469 15.2734C52.4805 15.2734 52.9668 15.1826 53.5059 15.001C54.0449 14.8135 54.5635 14.5908 55.0615 14.333C55.5654 14.0752 55.9814 13.8438 56.3096 13.6387Z" fill="black"/>
<path d="M1.03516 5.66699L1 3.8125L11.1514 3.59277L11.1162 5.27148L7.01172 5.42969L7.13477 16.5215L5.19238 16.5566V5.5L1.03516 5.66699Z" stroke="black" stroke-width="0.7" mask="url(#path-1-outside-1_4_37)"/>
<path d="M20.7842 17.1279L19.0615 16.8379L19.1846 15.5986C18.4697 16.0557 17.7666 16.3867 17.0752 16.5918C16.3896 16.7969 15.748 16.8994 15.1504 16.8994C14.7285 16.8994 14.3184 16.8438 13.9199 16.7324C13.5273 16.627 13.1816 16.46 12.8828 16.2314C12.5781 16.0088 12.332 15.7246 12.1445 15.3789C11.9629 15.0273 11.8721 14.6143 11.8721 14.1396C11.8721 13.665 11.9424 13.2402 12.083 12.8652C12.2236 12.4902 12.417 12.1592 12.6631 11.8721C12.9092 11.585 13.1992 11.3389 13.5332 11.1338C13.8672 10.9287 14.2275 10.7617 14.6143 10.6328C14.9951 10.5039 15.3965 10.4102 15.8184 10.3516C16.2402 10.2871 16.6592 10.2549 17.0752 10.2549C17.4619 10.2549 17.8223 10.2695 18.1562 10.2988C18.4902 10.3281 18.7861 10.3662 19.0439 10.4131C18.9385 9.99707 18.7949 9.60742 18.6133 9.24414C18.4375 8.88086 18.2031 8.58789 17.9102 8.36523C17.623 8.13672 17.251 8.02246 16.7939 8.02246C16.5654 8.02246 16.3047 8.05762 16.0117 8.12793C15.7188 8.19238 15.3965 8.3125 15.0449 8.48828C14.6934 8.66406 14.3096 8.90723 13.8936 9.21777C13.4775 9.52246 13.0322 9.91504 12.5576 10.3955L11.4941 9.10352C12.0566 8.57617 12.5957 8.14551 13.1113 7.81152C13.627 7.47754 14.1133 7.21387 14.5703 7.02051C15.0215 6.83301 15.4404 6.7041 15.8271 6.63379C16.2197 6.56348 16.5713 6.52832 16.8818 6.52832C17.4268 6.52832 17.9072 6.61914 18.3232 6.80078C18.7451 6.98242 19.1172 7.23438 19.4395 7.55664C19.7617 7.87305 20.0312 8.24805 20.248 8.68164C20.459 9.09766 20.6377 9.56055 20.7842 10.0703C20.9248 10.5684 21.0244 11.084 21.083 11.6172C21.1475 12.1504 21.1797 12.6807 21.1797 13.208C21.1797 13.7705 21.1475 14.374 21.083 15.0186C21.0186 15.6631 20.9189 16.3662 20.7842 17.1279ZM19.3076 13.6387C19.3193 13.3457 19.3281 13.0557 19.334 12.7686C19.3398 12.4814 19.3252 12.1826 19.29 11.8721C19.0029 11.7842 18.7012 11.7139 18.3848 11.6611C18.0684 11.6084 17.752 11.582 17.4355 11.582C16.9082 11.582 16.3955 11.6436 15.8975 11.7666C15.4053 11.8896 14.9805 12.0684 14.623 12.3027C14.2656 12.5371 13.9961 12.8242 13.8145 13.1641C13.6387 13.5039 13.6035 13.8906 13.709 14.3242C13.791 14.6758 13.9492 14.9219 14.1836 15.0625C14.4238 15.2031 14.7109 15.2734 15.0449 15.2734C15.4785 15.2734 15.9648 15.1826 16.5039 15.001C17.043 14.8135 17.5615 14.5908 18.0596 14.333C18.5635 14.0752 18.9795 13.8438 19.3076 13.6387Z" stroke="black" stroke-width="0.7" mask="url(#path-1-outside-1_4_37)"/>
<path d="M27.1211 14.9922L29.916 7.12598L31.7266 7.37207L28.2725 16.627L25.7939 16.5918L22.709 7.71484L24.4932 7.44238L27.1211 14.9922Z" stroke="black" stroke-width="0.7" mask="url(#path-1-outside-1_4_37)"/>
<path d="M42.2031 12.0215C42.2031 12.7598 42.0801 13.4424 41.834 14.0693C41.5879 14.6963 41.251 15.2412 40.8232 15.7041C40.3955 16.167 39.8945 16.5273 39.3203 16.7852C38.7461 17.0488 38.1338 17.1807 37.4834 17.1807C36.1533 17.1807 35.0488 16.7061 34.1699 15.7568C33.7422 15.3057 33.4053 14.7637 33.1592 14.1309C32.9131 13.498 32.79 12.7949 32.79 12.0215C32.79 11.2422 32.9131 10.5361 33.1592 9.90332C33.4053 9.26465 33.7422 8.71973 34.1699 8.26855C34.5918 7.81738 35.0869 7.46875 35.6553 7.22266C36.2236 6.97656 36.833 6.85352 37.4834 6.85352C38.1338 6.85352 38.7461 6.98535 39.3203 7.24902C39.8945 7.50684 40.3955 7.86426 40.8232 8.32129C41.251 8.78418 41.5879 9.33203 41.834 9.96484C42.0801 10.5918 42.2031 11.2773 42.2031 12.0215ZM40.3486 12.0039C40.3486 11.582 40.2959 11.1543 40.1904 10.7207C40.085 10.2871 39.918 9.90039 39.6895 9.56055C39.4609 9.21484 39.165 8.93652 38.8018 8.72559C38.4385 8.50879 37.999 8.40039 37.4834 8.40039C36.9854 8.40039 36.5576 8.50879 36.2002 8.72559C35.8428 8.93652 35.5498 9.21484 35.3213 9.56055C35.0928 9.90039 34.9258 10.2871 34.8203 10.7207C34.7148 11.1543 34.6621 11.582 34.6621 12.0039C34.6621 12.4258 34.7178 12.8506 34.8291 13.2783C34.9463 13.7002 35.1221 14.084 35.3564 14.4297C35.5908 14.7695 35.8838 15.0508 36.2354 15.2734C36.5928 15.4902 37.0088 15.5986 37.4834 15.5986C37.9814 15.5986 38.4092 15.4902 38.7666 15.2734C39.1299 15.0508 39.4287 14.7695 39.6631 14.4297C39.8975 14.084 40.0703 13.7002 40.1816 13.2783C40.293 12.8506 40.3486 12.4258 40.3486 12.0039Z" stroke="black" stroke-width="0.7" mask="url(#path-1-outside-1_4_37)"/>
<path d="M47.8633 14.9658L47.6348 16.7148C47.2188 16.709 46.8496 16.6387 46.5273 16.5039C46.2109 16.3691 45.9326 16.1934 45.6924 15.9766C45.4463 15.7656 45.2354 15.5225 45.0596 15.2471C44.8896 14.9717 44.7461 14.6934 44.6289 14.4121C44.3477 13.7441 44.1719 12.9883 44.1016 12.1445L44.3389 1H46.1758L46.0967 3.86523C46.085 4.29883 46.0732 4.71484 46.0615 5.11328C46.0498 5.50586 46.0381 5.88086 46.0264 6.23828C46.0088 6.94727 45.9912 7.58594 45.9736 8.1543C45.9619 8.7168 45.9502 9.21191 45.9385 9.63965C45.9092 10.6533 45.8916 11.4473 45.8857 12.0215C45.8916 12.5605 45.9707 13.0469 46.123 13.4805C46.252 13.8789 46.4541 14.2246 46.7295 14.5176C47.0049 14.8047 47.3828 14.9541 47.8633 14.9658Z" stroke="black" stroke-width="0.7" mask="url(#path-1-outside-1_4_37)"/>
<path d="M57.7861 17.1279L56.0635 16.8379L56.1865 15.5986C55.4717 16.0557 54.7686 16.3867 54.0771 16.5918C53.3916 16.7969 52.75 16.8994 52.1523 16.8994C51.7305 16.8994 51.3203 16.8438 50.9219 16.7324C50.5293 16.627 50.1836 16.46 49.8848 16.2314C49.5801 16.0088 49.334 15.7246 49.1465 15.3789C48.9648 15.0273 48.874 14.6143 48.874 14.1396C48.874 13.665 48.9443 13.2402 49.085 12.8652C49.2256 12.4902 49.4189 12.1592 49.665 11.8721C49.9111 11.585 50.2012 11.3389 50.5352 11.1338C50.8691 10.9287 51.2295 10.7617 51.6162 10.6328C51.9971 10.5039 52.3984 10.4102 52.8203 10.3516C53.2422 10.2871 53.6611 10.2549 54.0771 10.2549C54.4639 10.2549 54.8242 10.2695 55.1582 10.2988C55.4922 10.3281 55.7881 10.3662 56.0459 10.4131C55.9404 9.99707 55.7969 9.60742 55.6152 9.24414C55.4395 8.88086 55.2051 8.58789 54.9121 8.36523C54.625 8.13672 54.2529 8.02246 53.7959 8.02246C53.5674 8.02246 53.3066 8.05762 53.0137 8.12793C52.7207 8.19238 52.3984 8.3125 52.0469 8.48828C51.6953 8.66406 51.3115 8.90723 50.8955 9.21777C50.4795 9.52246 50.0342 9.91504 49.5596 10.3955L48.4961 9.10352C49.0586 8.57617 49.5977 8.14551 50.1133 7.81152C50.6289 7.47754 51.1152 7.21387 51.5723 7.02051C52.0234 6.83301 52.4424 6.7041 52.8291 6.63379C53.2217 6.56348 53.5732 6.52832 53.8838 6.52832C54.4287 6.52832 54.9092 6.61914 55.3252 6.80078C55.7471 6.98242 56.1191 7.23438 56.4414 7.55664C56.7637 7.87305 57.0332 8.24805 57.25 8.68164C57.4609 9.09766 57.6396 9.56055 57.7861 10.0703C57.9268 10.5684 58.0264 11.084 58.085 11.6172C58.1494 12.1504 58.1816 12.6807 58.1816 13.208C58.1816 13.7705 58.1494 14.374 58.085 15.0186C58.0205 15.6631 57.9209 16.3662 57.7861 17.1279ZM56.3096 13.6387C56.3213 13.3457 56.3301 13.0557 56.3359 12.7686C56.3418 12.4814 56.3271 12.1826 56.292 11.8721C56.0049 11.7842 55.7031 11.7139 55.3867 11.6611C55.0703 11.6084 54.7539 11.582 54.4375 11.582C53.9102 11.582 53.3975 11.6436 52.8994 11.7666C52.4072 11.8896 51.9824 12.0684 51.625 12.3027C51.2676 12.5371 50.998 12.8242 50.8164 13.1641C50.6406 13.5039 50.6055 13.8906 50.7109 14.3242C50.793 14.6758 50.9512 14.9219 51.1855 15.0625C51.4258 15.2031 51.7129 15.2734 52.0469 15.2734C52.4805 15.2734 52.9668 15.1826 53.5059 15.001C54.0449 14.8135 54.5635 14.5908 55.0615 14.333C55.5654 14.0752 55.9814 13.8438 56.3096 13.6387Z" stroke="black" stroke-width="0.7" mask="url(#path-1-outside-1_4_37)"/>
</svg>
