<svg width="82" height="26" viewBox="0 0 82 26" fill="none" xmlns="http://www.w3.org/2000/svg">
<path d="M18.3121 2.41203H18.2041C18.2041 2.36403 18.1561 2.34003 18.0601 2.34003C17.9761 2.34003 17.9101 2.37003 17.8621 2.43003L17.5381 2.46603C17.4781 2.46603 17.4181 2.47203 17.3581 2.48403C17.3101 2.48403 17.2621 2.48403 17.2141 2.48403C17.1901 2.47203 17.1421 2.46003 17.0701 2.44803C16.9981 2.42403 16.9201 2.41203 16.8361 2.41203C16.7521 2.41203 16.7041 2.43003 16.6921 2.46603C16.5241 2.47803 16.4101 2.49003 16.3501 2.50203C16.3021 2.50203 16.2181 2.50203 16.0981 2.50203C16.0621 2.49003 16.0321 2.47803 16.0081 2.46603C15.9841 2.44203 15.9601 2.41803 15.9361 2.39403C15.8761 2.37003 15.8281 2.31003 15.7921 2.21403C15.7561 2.11803 15.7321 2.00403 15.7201 1.87203C15.7201 1.74003 15.7201 1.61403 15.7201 1.49403C15.7201 1.37403 15.7201 1.28403 15.7201 1.22403C15.7321 1.21203 15.7441 1.20003 15.7561 1.18803C15.7801 1.16403 15.8041 1.14003 15.8281 1.11603L15.9541 1.00803H16.2421C16.3261 1.02003 16.4101 1.02603 16.4941 1.02603C16.5781 1.02603 16.6741 1.02603 16.7821 1.02603C16.7821 1.02603 16.8181 1.02003 16.8901 1.00803L16.9801 0.954028C17.3881 0.954028 17.7661 0.972028 18.1141 1.00803C18.4621 1.03203 18.8041 1.06203 19.1401 1.09803C19.4881 1.13403 19.8361 1.17003 20.1841 1.20603C20.5321 1.23003 20.9221 1.24203 21.3541 1.24203C21.3541 1.27803 21.3661 1.30803 21.3901 1.33203L21.4441 1.38603C21.4681 1.39803 21.5221 1.40403 21.6061 1.40403C21.7861 1.40403 21.9241 1.40403 22.0201 1.40403C22.1281 1.39203 22.2181 1.38003 22.2901 1.36803C22.3621 1.34403 22.4281 1.32003 22.4881 1.29603C22.5481 1.27203 22.6261 1.24803 22.7221 1.22403C22.7701 1.28403 22.7881 1.34403 22.7761 1.40403C22.7761 1.46403 22.8241 1.53003 22.9201 1.60203C22.8961 1.63803 22.8841 1.68003 22.8841 1.72803C22.8841 1.78803 22.8901 1.81803 22.9021 1.81803C22.9021 1.84203 22.8961 1.88403 22.8841 1.94403C22.8721 2.00403 22.8661 2.04603 22.8661 2.07003C22.8661 2.11803 22.8721 2.14803 22.8841 2.16003C22.9081 2.16003 22.9321 2.16003 22.9561 2.16003C22.8241 2.24403 22.6921 2.31003 22.5601 2.35803C22.4401 2.39403 22.3561 2.41803 22.3081 2.43003C22.1641 2.43003 22.0321 2.43003 21.9121 2.43003C21.8041 2.43003 21.6841 2.41803 21.5521 2.39403C21.3721 2.41803 21.2461 2.44203 21.1741 2.46603C21.1141 2.47803 21.0661 2.48403 21.0301 2.48403C20.9461 2.48403 20.8861 2.47803 20.8501 2.46603C20.8141 2.45403 20.7601 2.43603 20.6881 2.41203H20.0401L20.1121 3.38403L20.5441 4.46403V7.54203L20.6521 7.92003V9.16203L20.1841 9.30603L18.7261 9.18003L18.2761 9.27003L18.0601 8.85603L18.0061 7.83003V5.31003L18.3121 3.58203V2.41203Z" fill="black"/>
<path d="M30.5086 4.10403C30.6406 4.14003 30.7426 4.20003 30.8146 4.28403C30.8866 4.36803 30.9526 4.46403 31.0126 4.57203C31.0846 4.66803 31.1566 4.77003 31.2286 4.87803C31.3126 4.97403 31.4326 5.07003 31.5886 5.16603L31.9486 7.68603L31.9306 7.92003V8.49603L31.0666 8.94603L30.5986 8.85603H29.8606L29.6986 8.38803L29.8066 8.01003V6.75003L29.8966 6.44403L29.8066 6.42603C29.8186 6.31803 29.8246 6.23403 29.8246 6.17403C29.8246 6.10203 29.8246 6.04203 29.8246 5.99403C29.8246 5.89803 29.8066 5.82603 29.7706 5.77803C29.7346 5.71803 29.7046 5.65203 29.6806 5.58003C29.6686 5.53203 29.6446 5.47203 29.6086 5.40003C29.5846 5.32803 29.5426 5.25003 29.4826 5.16603C29.4226 5.08203 29.3386 5.00403 29.2306 4.93203C29.1346 4.86003 29.0146 4.80603 28.8706 4.77003L27.9526 4.82403L27.5926 4.87803V8.69403L27.1426 8.80203H25.4506L25.2886 7.90203L25.5946 4.41003L25.8286 3.51003L26.0986 0.648029L26.4406 0.504028L27.4486 0.612029V3.69003L27.5206 3.85203H29.7526L30.1306 3.97803C30.1906 3.99003 30.2506 4.00803 30.3106 4.03203C30.3706 4.05603 30.4366 4.08003 30.5086 4.10403Z" fill="black"/>
<path d="M39.8519 8.20803H39.7619C39.8219 8.20803 39.8519 8.22603 39.8519 8.26203C39.8519 8.28603 39.7979 8.34603 39.6899 8.44203C39.5939 8.52603 39.5099 8.58003 39.4379 8.60403C39.1499 8.61603 38.9039 8.64003 38.6999 8.67603C38.5079 8.71203 38.3219 8.75403 38.1419 8.80203C37.9739 8.85003 37.7999 8.89203 37.6199 8.92803C37.4519 8.95203 37.2359 8.96403 36.9719 8.96403C36.8519 8.94003 36.7499 8.92803 36.6659 8.92803C36.5819 8.92803 36.5039 8.92803 36.4319 8.92803C36.3479 8.92803 36.2639 8.93403 36.1799 8.94603C36.1079 8.94603 36.0359 8.94603 35.9639 8.94603C35.8319 8.94603 35.7239 8.94003 35.6399 8.92803C35.5559 8.91603 35.4779 8.90403 35.4059 8.89203C35.3339 8.86803 35.2559 8.83203 35.1719 8.78403C35.0879 8.72403 34.9739 8.65203 34.8299 8.56803H34.5059C34.4939 8.56803 34.4759 8.53803 34.4519 8.47803C34.4399 8.40603 34.4219 8.37003 34.3979 8.37003L34.2899 8.28003C34.2899 8.28003 34.2659 8.25003 34.2179 8.19003C34.1819 8.13003 34.1339 8.07603 34.0739 8.02803C33.9299 7.81203 33.8459 7.62003 33.8219 7.45203C33.8099 7.27203 33.8039 7.09203 33.8039 6.91203C33.8159 6.81603 33.8279 6.72003 33.8399 6.62403C33.8639 6.52803 33.9059 6.43203 33.9659 6.33603C34.0739 6.12003 34.1819 5.93403 34.2899 5.77803C34.3979 5.62203 34.4999 5.47803 34.5959 5.34603C34.6919 5.21403 34.7999 5.09403 34.9199 4.98603C35.0399 4.87803 35.1719 4.76403 35.3159 4.64403C35.5799 4.48803 35.8799 4.38603 36.2159 4.33803C36.5639 4.29003 36.8879 4.21203 37.1879 4.10403C37.3199 4.10403 37.4399 4.12803 37.5479 4.17603C37.6559 4.22403 37.8059 4.24803 37.9979 4.24803C38.0219 4.28403 38.0579 4.31403 38.1059 4.33803C38.1779 4.39803 38.2799 4.42803 38.4119 4.42803C38.4239 4.42803 38.4359 4.44603 38.4479 4.48203C38.4599 4.51803 38.4779 4.55403 38.5019 4.59003C38.5379 4.62603 38.5799 4.66203 38.6279 4.69803C38.6879 4.73403 38.7599 4.75203 38.8439 4.75203C38.8439 4.77603 38.8679 4.84203 38.9159 4.95003C38.9759 5.05803 39.0359 5.19003 39.0959 5.34603C39.1559 5.49003 39.2099 5.65203 39.2579 5.83203C39.3179 6.00003 39.3599 6.16803 39.3839 6.33603C39.3119 6.42003 39.2459 6.48003 39.1859 6.51603C39.1259 6.54003 39.0719 6.61203 39.0239 6.73203C38.9159 6.74403 38.8079 6.77403 38.6999 6.82203C38.5919 6.85803 38.4479 6.90603 38.2679 6.96603C38.0879 7.01403 37.8599 7.05603 37.5839 7.09203C37.3079 7.12803 36.9599 7.14603 36.5399 7.14603C36.5279 7.14603 36.5219 7.11603 36.5219 7.05603C36.5219 6.98403 36.5159 6.91203 36.5039 6.84003C36.4919 6.75603 36.4739 6.67803 36.4499 6.60603C36.4259 6.53403 36.3839 6.48603 36.3239 6.46203C36.3479 6.46203 36.4319 6.45003 36.5759 6.42603C36.7319 6.40203 36.9299 6.35403 37.1699 6.28203C37.2299 6.27003 37.3019 6.26403 37.3859 6.26403C37.4699 6.26403 37.5539 6.25803 37.6379 6.24603C37.7219 6.23403 37.7939 6.21003 37.8539 6.17403C37.9139 6.13803 37.9439 6.07803 37.9439 5.99403C37.9439 5.93403 37.9379 5.87403 37.9259 5.81403C37.9259 5.74203 37.9019 5.67603 37.8539 5.61603C37.8059 5.55603 37.7399 5.50803 37.6559 5.47203C37.5839 5.42403 37.4759 5.40003 37.3319 5.40003C37.0919 5.40003 36.8519 5.44203 36.6119 5.52603C36.3719 5.59803 36.2039 5.66403 36.1079 5.72403C35.9999 5.89203 35.9279 6.12003 35.8919 6.40803C35.8559 6.68403 35.8379 6.91203 35.8379 7.09203C35.8379 7.24803 35.8919 7.38603 35.9999 7.50603C36.1199 7.62603 36.1799 7.71003 36.1799 7.75803C36.1799 7.81803 36.2159 7.86003 36.2879 7.88403C36.3719 7.90803 36.4799 7.94403 36.6119 7.99203C36.6359 7.99203 36.6479 7.99203 36.6479 7.99203C36.6599 7.98003 36.6719 7.97403 36.6839 7.97403C36.6959 7.97403 36.7079 7.96803 36.7199 7.95603C36.7679 7.98003 36.7859 7.99203 36.7739 7.99203C36.7619 7.99203 36.7559 7.99203 36.7559 7.99203C36.7559 7.99203 36.7859 8.00403 36.8459 8.02803C36.9179 8.04003 37.0679 8.06403 37.2959 8.10003C37.4279 8.10003 37.5419 8.10003 37.6379 8.10003C37.7339 8.08803 37.8299 8.08203 37.9259 8.08203C38.0219 8.07003 38.1239 8.06403 38.2319 8.06403C38.3399 8.06403 38.4659 8.05803 38.6099 8.04603H38.6999C38.8319 8.04603 38.9399 8.03403 39.0239 8.01003C39.1199 7.97403 39.1979 7.94403 39.2579 7.92003C39.3299 7.88403 39.3959 7.85403 39.4559 7.83003C39.5159 7.79403 39.5819 7.77603 39.6539 7.77603C39.6779 7.84803 39.7079 7.91403 39.7439 7.97403C39.7799 8.02203 39.7979 8.07603 39.7979 8.13603L39.8519 8.20803Z" fill="black"/>
<path d="M4.82806 14.103H0.357056V13.1H15.2661V14.103H10.7781V25H4.82806V14.103Z" fill="black"/>
<path d="M16.9132 13.1H21.8772L27.1472 25H20.7212L18.9362 21.056H15.1962L13.6662 25H12.4252L16.9132 13.1ZM18.4602 20.019L16.9132 16.568L15.5702 20.019H18.4602Z" fill="black"/>
<path d="M23.3628 13.1H28.8708L32.7638 21.872L36.0278 13.1H37.3368L32.8488 25H28.6328L23.3628 13.1Z" fill="black"/>
<path d="M44.3744 25.085C42.8558 25.085 41.4844 24.8527 40.2604 24.388C39.0364 23.9234 38.0674 23.2377 37.3534 22.331C36.6508 21.413 36.2994 20.3137 36.2994 19.033C36.2994 17.7637 36.6564 16.6757 37.3704 15.769C38.0844 14.8624 39.0478 14.1767 40.2604 13.712C41.4844 13.236 42.8558 12.998 44.3744 12.998C45.8818 12.998 47.2418 13.236 48.4544 13.712C49.6784 14.1767 50.6418 14.8624 51.3444 15.769C52.0584 16.6757 52.4154 17.7637 52.4154 19.033C52.4154 20.3137 52.0584 21.413 51.3444 22.331C50.6418 23.2377 49.6784 23.9234 48.4544 24.388C47.2418 24.8527 45.8818 25.085 44.3744 25.085ZM44.3744 24.082C44.8504 24.082 45.2018 23.8667 45.4284 23.436C45.6211 23.1074 45.7514 22.5237 45.8194 21.685C45.8534 21.243 45.8704 20.359 45.8704 19.033C45.8704 17.6957 45.8421 16.7494 45.7854 16.194C45.7514 15.514 45.6268 14.9984 45.4114 14.647C45.1848 14.2164 44.8391 14.001 44.3744 14.001C43.8984 14.001 43.5414 14.2164 43.3034 14.647C43.1108 14.987 42.9861 15.5027 42.9294 16.194C42.8841 16.7834 42.8614 17.7297 42.8614 19.033C42.8614 20.5064 42.8784 21.3904 42.9124 21.685C42.9578 22.467 43.0824 23.0507 43.2864 23.436C43.5244 23.8667 43.8871 24.082 44.3744 24.082Z" fill="black"/>
<path d="M53.2524 13.1H59.2194V23.98H65.6794V25H53.2524V13.1Z" fill="black"/>
<path d="M70.8517 13.1H75.8157L81.0857 25H74.6597L72.8747 21.056H69.1347L67.6047 25H66.3637L70.8517 13.1ZM72.3987 20.019L70.8517 16.568L69.5087 20.019H72.3987Z" fill="black"/>
</svg>
